<svg width="214" height="39" viewBox="0 0 214 39" fill="none" xmlns="http://www.w3.org/2000/svg">
<path d="M2 28.4335C2 28.4335 10.4776 19.3979 9.8806 34.0068C9.28359 48.6158 19.9702 5 19.9702 5L26.1194 22.5223" stroke="#0D1D37" stroke-width="2.5" stroke-linecap="round"/>
<path d="M20.2685 20.0449C20.2685 20.0449 21.9684 22.5355 22.3242 29.5327C22.68 36.5299 31.97 26.3306 31.97 26.3306" stroke="#0D1D37" stroke-width="2.5" stroke-linecap="round"/>
<path d="M58.7381 24.36C58.8021 24.5733 58.8341 24.8027 58.8341 25.048C58.1941 25.016 57.5861 25 57.0101 25C56.4448 25 55.8421 25.016 55.2021 25.048C55.2021 24.7387 55.2395 24.5093 55.3141 24.36C55.6128 24.328 55.8208 24.28 55.9381 24.216C56.0661 24.152 56.1301 24.0453 56.1301 23.896C56.1301 23.768 56.0501 23.5067 55.8901 23.112L55.1861 21.48C53.4901 21.48 52.0821 21.5013 50.9621 21.544L50.5301 22.648C50.3595 23.096 50.2741 23.448 50.2741 23.704C50.2741 23.9173 50.3381 24.0773 50.4661 24.184C50.6048 24.28 50.8181 24.3387 51.1061 24.36C51.1808 24.5413 51.2181 24.7707 51.2181 25.048C50.8555 25.016 50.3488 25 49.6981 25C49.4208 25 48.9781 25.016 48.3701 25.048C48.3701 24.7813 48.4075 24.5573 48.4821 24.376C48.7595 24.3227 48.9781 24.184 49.1381 23.96C49.2981 23.736 49.5061 23.2987 49.7621 22.648L53.0741 14.152C53.2555 14.1093 53.4635 14.088 53.6981 14.088L57.5061 22.824C57.7728 23.4213 57.9808 23.816 58.1301 24.008C58.2901 24.2 58.4928 24.3173 58.7381 24.36ZM54.8821 20.76L53.6661 17.912C53.3461 17.176 53.1115 16.5947 52.9621 16.168C52.8448 16.5307 52.6421 17.1067 52.3541 17.896L51.2501 20.76H54.8821ZM60.4518 25.032C60.4518 24.7013 60.4784 24.4613 60.5318 24.312C60.7878 24.2907 60.9851 24.248 61.1238 24.184C61.2624 24.12 61.3584 24.0027 61.4118 23.832C61.4758 23.6613 61.5078 23.4053 61.5078 23.064V18.856C61.5078 18.5467 61.4758 18.312 61.4118 18.152C61.3584 17.992 61.2624 17.88 61.1238 17.816C60.9958 17.752 60.7984 17.7093 60.5318 17.688C60.4891 17.5173 60.4678 17.2773 60.4678 16.968C61.0651 16.9893 61.7531 17 62.5318 17C62.8838 17 63.1504 16.9947 63.3318 16.984L64.1798 16.968C65.7264 16.968 66.9958 17.24 67.9878 17.784C68.9904 18.328 69.4918 19.3307 69.4918 20.792C69.4918 22.456 68.9264 23.576 67.7958 24.152C66.6651 24.7173 65.4544 25 64.1638 25C62.6278 25 61.3904 25.0107 60.4518 25.032ZM64.2278 24.28C64.9958 24.28 65.6411 24.1947 66.1638 24.024C66.6971 23.8427 67.1184 23.512 67.4278 23.032C67.7478 22.552 67.9078 21.8747 67.9078 21C67.9078 19.816 67.5344 18.9627 66.7878 18.44C66.0518 17.9173 65.1131 17.656 63.9718 17.656C63.5344 17.656 63.2038 17.688 62.9798 17.752V23.032C62.9798 23.3733 63.0118 23.6347 63.0758 23.816C63.1398 23.9867 63.2571 24.1093 63.4278 24.184C63.6091 24.248 63.8758 24.28 64.2278 24.28ZM78.462 17C78.878 17 79.3527 16.9893 79.886 16.968C79.886 17.256 79.8594 17.4853 79.806 17.656C79.3794 17.7307 78.99 18.1733 78.638 18.984C77.7954 20.84 76.814 22.8507 75.694 25.016C75.534 25.0693 75.326 25.096 75.07 25.096C74.078 22.9413 73.1074 20.9467 72.158 19.112C71.9234 18.6427 71.7527 18.328 71.646 18.168C71.55 17.9973 71.4487 17.8747 71.342 17.8C71.246 17.7253 71.1127 17.6773 70.942 17.656C70.8887 17.5067 70.862 17.2773 70.862 16.968C71.374 16.9893 71.9607 17 72.622 17C73.038 17 73.63 16.9893 74.398 16.968C74.398 17.2347 74.3714 17.464 74.318 17.656C74.0407 17.6773 73.8327 17.72 73.694 17.784C73.566 17.848 73.502 17.9547 73.502 18.104C73.502 18.296 73.6034 18.5733 73.806 18.936C74.5527 20.3227 75.2194 21.688 75.806 23.032C76.6807 21.3253 77.3367 19.9813 77.774 19C77.902 18.712 77.966 18.4667 77.966 18.264C77.966 17.9013 77.742 17.6987 77.294 17.656C77.2407 17.5067 77.214 17.2773 77.214 16.968C77.7474 16.9893 78.1634 17 78.462 17ZM85.9124 25.144C84.9951 25.144 84.1844 24.9733 83.4804 24.632C82.7764 24.2907 82.2271 23.8107 81.8324 23.192C81.4484 22.5733 81.2564 21.8533 81.2564 21.032C81.2564 20.2213 81.4484 19.5013 81.8324 18.872C82.2271 18.2427 82.7764 17.7573 83.4804 17.416C84.1951 17.064 85.0164 16.888 85.9444 16.888C86.8617 16.888 87.6724 17.0587 88.3764 17.4C89.0804 17.7413 89.6244 18.2267 90.0084 18.856C90.4031 19.4747 90.6004 20.1893 90.6004 21C90.6004 21.8213 90.4031 22.5467 90.0084 23.176C89.6244 23.7947 89.0751 24.28 88.3604 24.632C87.6564 24.9733 86.8404 25.144 85.9124 25.144ZM86.1364 24.408C87.0004 24.408 87.6831 24.12 88.1844 23.544C88.6964 22.968 88.9524 22.2 88.9524 21.24C88.9524 20.5467 88.8137 19.928 88.5364 19.384C88.2591 18.8293 87.8697 18.3973 87.3684 18.088C86.8777 17.7787 86.3231 17.624 85.7044 17.624C84.8404 17.624 84.1577 17.9173 83.6564 18.504C83.1551 19.08 82.9044 19.8427 82.9044 20.792C82.9044 21.5067 83.0431 22.1413 83.3204 22.696C83.5977 23.24 83.9817 23.6613 84.4724 23.96C84.9631 24.2587 85.5177 24.408 86.1364 24.408ZM100.206 17.512C100.099 17.9173 100.046 18.5253 100.046 19.336C99.8431 19.432 99.5764 19.48 99.2458 19.48C99.2138 18.7867 99.0218 18.3013 98.6698 18.024C98.3284 17.736 97.8324 17.592 97.1818 17.592C96.1151 17.592 95.3151 17.8853 94.7818 18.472C94.2484 19.0587 93.9818 19.7787 93.9818 20.632C93.9818 21.304 94.1204 21.912 94.3978 22.456C94.6858 22.9893 95.0911 23.4107 95.6138 23.72C96.1471 24.0293 96.7764 24.184 97.5018 24.184C97.9391 24.184 98.3871 24.136 98.8458 24.04C99.3044 23.9333 99.7258 23.784 100.11 23.592C100.174 23.6453 100.232 23.7253 100.286 23.832C100.339 23.928 100.371 24.0187 100.382 24.104C99.7844 24.4453 99.2191 24.7013 98.6858 24.872C98.1524 25.032 97.5498 25.112 96.8778 25.112C96.0031 25.112 95.2244 24.936 94.5418 24.584C93.8591 24.232 93.3258 23.7413 92.9418 23.112C92.5578 22.4827 92.3658 21.7627 92.3658 20.952C92.3658 20.088 92.5844 19.352 93.0218 18.744C93.4591 18.1253 94.0351 17.6613 94.7498 17.352C95.4751 17.0427 96.2538 16.888 97.0858 16.888C97.6511 16.888 98.1791 16.9413 98.6698 17.048C99.1604 17.144 99.6724 17.2987 100.206 17.512ZM110.877 24.312C110.931 24.472 110.957 24.712 110.957 25.032C110.531 25.0107 109.981 25 109.309 25C108.605 25 108.04 25.0107 107.613 25.032C107.613 24.7013 107.645 24.4613 107.709 24.312C107.955 24.28 108.125 24.2373 108.221 24.184C108.328 24.12 108.381 24.0293 108.381 23.912C108.381 23.816 108.328 23.6507 108.221 23.416L107.901 22.728C106.365 22.728 105.155 22.7547 104.269 22.808L104.093 23.224C103.987 23.4693 103.933 23.6613 103.933 23.8C103.933 24.0987 104.152 24.2693 104.589 24.312C104.653 24.504 104.685 24.744 104.685 25.032C104.28 25.0107 103.837 25 103.357 25C102.941 25 102.563 25.0107 102.221 25.032C102.221 24.776 102.253 24.536 102.317 24.312C102.552 24.2693 102.733 24.1733 102.861 24.024C102.989 23.864 103.16 23.5493 103.373 23.08L106.125 16.984C106.328 16.9413 106.541 16.92 106.765 16.92L109.709 23.032C109.944 23.5227 110.141 23.8533 110.301 24.024C110.472 24.1947 110.664 24.2907 110.877 24.312ZM107.581 22.072L106.621 20.056C106.344 19.4907 106.152 19.0427 106.045 18.712C105.96 18.9787 105.853 19.2453 105.725 19.512C105.608 19.768 105.533 19.928 105.501 19.992L104.589 22.072H107.581ZM120.081 17.512C119.974 17.9173 119.921 18.5253 119.921 19.336C119.718 19.432 119.451 19.48 119.121 19.48C119.089 18.7867 118.897 18.3013 118.545 18.024C118.203 17.736 117.707 17.592 117.057 17.592C115.99 17.592 115.19 17.8853 114.657 18.472C114.123 19.0587 113.857 19.7787 113.857 20.632C113.857 21.304 113.995 21.912 114.273 22.456C114.561 22.9893 114.966 23.4107 115.489 23.72C116.022 24.0293 116.651 24.184 117.377 24.184C117.814 24.184 118.262 24.136 118.721 24.04C119.179 23.9333 119.601 23.784 119.985 23.592C120.049 23.6453 120.107 23.7253 120.161 23.832C120.214 23.928 120.246 24.0187 120.257 24.104C119.659 24.4453 119.094 24.7013 118.561 24.872C118.027 25.032 117.425 25.112 116.753 25.112C115.878 25.112 115.099 24.936 114.417 24.584C113.734 24.232 113.201 23.7413 112.817 23.112C112.433 22.4827 112.241 21.7627 112.241 20.952C112.241 20.088 112.459 19.352 112.897 18.744C113.334 18.1253 113.91 17.6613 114.625 17.352C115.35 17.0427 116.129 16.888 116.961 16.888C117.526 16.888 118.054 16.9413 118.545 17.048C119.035 17.144 119.547 17.2987 120.081 17.512ZM122.28 25.032C122.28 24.7013 122.307 24.4613 122.36 24.312C122.627 24.2907 122.824 24.248 122.952 24.184C123.091 24.12 123.187 24.008 123.24 23.848C123.293 23.688 123.32 23.448 123.32 23.128V18.856C123.32 18.5467 123.293 18.312 123.24 18.152C123.187 17.992 123.091 17.88 122.952 17.816C122.824 17.752 122.627 17.7093 122.36 17.688C122.307 17.528 122.28 17.288 122.28 16.968C122.963 16.9893 123.56 17 124.072 17C124.499 17 125.085 16.9893 125.832 16.968C125.832 17.2987 125.811 17.5387 125.768 17.688C125.384 17.7093 125.123 17.7947 124.984 17.944C124.856 18.0933 124.792 18.3973 124.792 18.856V23.128C124.792 23.5867 124.856 23.896 124.984 24.056C125.123 24.2053 125.384 24.2907 125.768 24.312C125.811 24.472 125.832 24.712 125.832 25.032C125.107 25.0107 124.52 25 124.072 25C123.539 25 122.941 25.0107 122.28 25.032ZM136.424 24.312C136.478 24.472 136.504 24.712 136.504 25.032C136.078 25.0107 135.528 25 134.856 25C134.152 25 133.587 25.0107 133.16 25.032C133.16 24.7013 133.192 24.4613 133.256 24.312C133.502 24.28 133.672 24.2373 133.768 24.184C133.875 24.12 133.928 24.0293 133.928 23.912C133.928 23.816 133.875 23.6507 133.768 23.416L133.448 22.728C131.912 22.728 130.702 22.7547 129.816 22.808L129.64 23.224C129.534 23.4693 129.48 23.6613 129.48 23.8C129.48 24.0987 129.699 24.2693 130.136 24.312C130.2 24.504 130.232 24.744 130.232 25.032C129.827 25.0107 129.384 25 128.904 25C128.488 25 128.11 25.0107 127.768 25.032C127.768 24.776 127.8 24.536 127.864 24.312C128.099 24.2693 128.28 24.1733 128.408 24.024C128.536 23.864 128.707 23.5493 128.92 23.08L131.672 16.984C131.875 16.9413 132.088 16.92 132.312 16.92L135.256 23.032C135.491 23.5227 135.688 23.8533 135.848 24.024C136.019 24.1947 136.211 24.2907 136.424 24.312ZM133.128 22.072L132.168 20.056C131.891 19.4907 131.699 19.0427 131.592 18.712C131.507 18.9787 131.4 19.2453 131.272 19.512C131.155 19.768 131.08 19.928 131.048 19.992L130.136 22.072H133.128ZM145.559 24.28C146.146 24.28 146.61 24.216 146.951 24.088C147.293 23.96 147.565 23.7573 147.767 23.48C147.97 23.2027 148.167 22.7973 148.359 22.264C148.669 22.36 148.903 22.488 149.063 22.648C148.861 23.2773 148.695 24.072 148.567 25.032C147.735 25.0107 146.701 25 145.463 25C143.501 25 142.119 25.016 141.319 25.048C141.319 24.7387 141.346 24.5093 141.399 24.36C141.698 24.3387 141.922 24.2853 142.071 24.2C142.231 24.1147 142.343 23.9653 142.407 23.752C142.482 23.528 142.519 23.208 142.519 22.792V16.216C142.519 15.6827 142.439 15.3253 142.279 15.144C142.13 14.952 141.842 14.8453 141.415 14.824C141.362 14.6747 141.335 14.4453 141.335 14.136C141.954 14.168 142.599 14.184 143.271 14.184C143.922 14.184 144.567 14.168 145.207 14.136C145.207 14.4453 145.181 14.6747 145.127 14.824C144.829 14.8453 144.599 14.8987 144.439 14.984C144.29 15.0587 144.183 15.1973 144.119 15.4C144.055 15.6027 144.023 15.8907 144.023 16.264V22.792C144.023 23.208 144.061 23.5173 144.135 23.72C144.21 23.9227 144.349 24.0667 144.551 24.152C144.754 24.2373 145.058 24.28 145.463 24.28H145.559ZM154.768 25.112C153.894 25.112 153.2 25.0107 152.688 24.808C152.187 24.5947 151.824 24.28 151.6 23.864C151.387 23.4373 151.28 22.888 151.28 22.216V18.888C151.28 18.5573 151.259 18.312 151.216 18.152C151.174 17.992 151.094 17.8853 150.976 17.832C150.87 17.768 150.694 17.72 150.448 17.688C150.395 17.5173 150.368 17.2773 150.368 16.968C150.88 16.9893 151.435 17 152.032 17C152.63 17 153.216 16.9893 153.792 16.968C153.792 17.2453 153.771 17.4853 153.728 17.688C153.43 17.72 153.216 17.768 153.088 17.832C152.96 17.8853 152.87 17.992 152.816 18.152C152.774 18.3013 152.752 18.5467 152.752 18.888V22.024C152.752 22.7813 152.923 23.352 153.264 23.736C153.616 24.12 154.219 24.312 155.072 24.312C155.328 24.312 155.59 24.2747 155.856 24.2C156.123 24.1147 156.352 23.992 156.544 23.832C156.747 23.6507 156.891 23.4107 156.976 23.112C157.072 22.8027 157.12 22.3493 157.12 21.752V19.24C157.12 18.8347 157.094 18.5307 157.04 18.328C156.998 18.1147 156.907 17.9653 156.768 17.88C156.63 17.784 156.422 17.72 156.144 17.688C156.102 17.432 156.08 17.192 156.08 16.968C156.507 16.9893 156.955 17 157.424 17C157.84 17 158.294 16.9893 158.784 16.968C158.784 17.2347 158.758 17.4747 158.704 17.688C158.374 17.72 158.15 17.8373 158.032 18.04C157.926 18.2427 157.872 18.6213 157.872 19.176V21.768C157.872 22.4827 157.814 23.048 157.696 23.464C157.59 23.8693 157.376 24.2 157.056 24.456C156.523 24.8933 155.76 25.112 154.768 25.112ZM172.535 24.36C172.588 24.5307 172.615 24.7547 172.615 25.032C172.039 25.0107 171.442 25 170.823 25C170.268 25 169.682 25.0107 169.063 25.032C169.063 24.8187 169.09 24.5947 169.143 24.36C169.495 24.328 169.735 24.264 169.863 24.168C169.991 24.0613 170.055 23.864 170.055 23.576C170.055 23.5013 170.034 23.272 169.991 22.888L169.495 19.08L166.647 24.792C166.476 24.856 166.268 24.888 166.023 24.888L163.063 19.112L162.615 22.488C162.583 22.776 162.567 23.0213 162.567 23.224C162.567 23.64 162.636 23.928 162.775 24.088C162.924 24.248 163.175 24.3387 163.527 24.36C163.58 24.5307 163.607 24.7547 163.607 25.032C163.031 25.0107 162.524 25 162.087 25C161.618 25 161.138 25.0107 160.647 25.032C160.647 24.7547 160.674 24.5307 160.727 24.36C160.983 24.3387 161.18 24.2747 161.319 24.168C161.468 24.0613 161.58 23.88 161.655 23.624C161.74 23.3573 161.81 22.968 161.863 22.456L162.311 18.936C162.322 18.8613 162.327 18.7547 162.327 18.616C162.327 18.2533 162.252 18.008 162.103 17.88C161.964 17.752 161.719 17.688 161.367 17.688C161.314 17.496 161.287 17.256 161.287 16.968C161.692 16.9893 162.082 17 162.455 17C162.754 17 163.138 16.9893 163.607 16.968L166.727 22.968L169.687 16.968C170.156 16.9893 170.556 17 170.887 17C171.143 17 171.527 16.9893 172.039 16.968C172.039 17.2773 172.012 17.5173 171.959 17.688C171.639 17.688 171.399 17.7627 171.239 17.912C171.079 18.0507 170.999 18.2907 170.999 18.632C170.999 18.7707 171.004 18.8827 171.015 18.968L171.511 22.744C171.575 23.2027 171.639 23.5387 171.703 23.752C171.778 23.9653 171.874 24.1147 171.991 24.2C172.119 24.2853 172.3 24.3387 172.535 24.36ZM174.717 25.032C174.717 24.7013 174.744 24.4613 174.797 24.312C175.064 24.2907 175.261 24.248 175.389 24.184C175.528 24.12 175.624 24.008 175.677 23.848C175.731 23.688 175.757 23.448 175.757 23.128V18.856C175.757 18.5467 175.731 18.312 175.677 18.152C175.624 17.992 175.528 17.88 175.389 17.816C175.261 17.752 175.064 17.7093 174.797 17.688C174.744 17.528 174.717 17.288 174.717 16.968C175.4 16.9893 175.997 17 176.509 17C176.936 17 177.523 16.9893 178.269 16.968C178.269 17.2987 178.248 17.5387 178.205 17.688C177.821 17.7093 177.56 17.7947 177.421 17.944C177.293 18.0933 177.229 18.3973 177.229 18.856V23.128C177.229 23.5867 177.293 23.896 177.421 24.056C177.56 24.2053 177.821 24.2907 178.205 24.312C178.248 24.472 178.269 24.712 178.269 25.032C177.544 25.0107 176.957 25 176.509 25C175.976 25 175.379 25.0107 174.717 25.032ZM187.23 22.728C187.518 22.7813 187.752 22.8987 187.934 23.08C187.742 23.5813 187.598 24.2267 187.502 25.016L184.414 25C182.878 25 181.64 25.0107 180.702 25.032C180.702 24.7013 180.728 24.4613 180.782 24.312C181.048 24.2907 181.246 24.248 181.374 24.184C181.512 24.12 181.608 24.0027 181.662 23.832C181.715 23.6613 181.742 23.4053 181.742 23.064V18.856C181.742 18.5467 181.71 18.312 181.646 18.152C181.592 17.992 181.496 17.88 181.358 17.816C181.23 17.752 181.038 17.7093 180.782 17.688C180.728 17.528 180.702 17.288 180.702 16.968C181.47 16.9893 182.307 17 183.214 17C185.176 17 186.488 16.9893 187.15 16.968C187.267 17.9707 187.368 18.632 187.454 18.952C187.272 19.0693 187.032 19.128 186.734 19.128C186.691 18.68 186.504 18.328 186.174 18.072C185.854 17.816 185.283 17.688 184.462 17.688H183.214V20.632H184.014C184.579 20.632 184.968 20.568 185.182 20.44C185.406 20.312 185.523 20.0773 185.534 19.736C185.768 19.6613 186.014 19.624 186.27 19.624C186.248 19.8907 186.238 20.3387 186.238 20.968C186.238 21.6507 186.248 22.1147 186.27 22.36C185.982 22.36 185.747 22.328 185.566 22.264C185.534 21.912 185.406 21.672 185.182 21.544C184.968 21.416 184.579 21.352 184.014 21.352H183.214V23.032C183.214 23.3733 183.246 23.6347 183.31 23.816C183.384 23.9867 183.507 24.1093 183.678 24.184C183.859 24.248 184.126 24.28 184.478 24.28H184.574C185.192 24.28 185.667 24.2267 185.998 24.12C186.339 24.0133 186.59 23.8587 186.75 23.656C186.92 23.4427 187.08 23.1333 187.23 22.728ZM196.684 23.128C196.972 23.5547 197.265 23.8587 197.564 24.04C197.873 24.2107 198.252 24.3067 198.7 24.328C198.7 24.6373 198.678 24.8613 198.636 25C197.729 25 196.961 25.0373 196.332 25.112C196.257 24.984 196.113 24.76 195.9 24.44L195.18 23.272C194.785 22.6107 194.262 22.072 193.612 21.656L193.1 21.672L192.636 21.656V23.112C192.636 23.464 192.662 23.7253 192.716 23.896C192.769 24.0667 192.854 24.184 192.972 24.248C193.1 24.312 193.292 24.3493 193.548 24.36C193.59 24.488 193.612 24.712 193.612 25.032C193.217 25.0107 192.636 25 191.868 25C191.302 25 190.721 25.0107 190.124 25.032C190.124 24.7333 190.15 24.5093 190.204 24.36C190.47 24.3387 190.668 24.296 190.796 24.232C190.934 24.168 191.03 24.056 191.084 23.896C191.137 23.736 191.164 23.496 191.164 23.176V18.84C191.164 18.3813 191.1 18.0773 190.972 17.928C190.844 17.7787 190.588 17.6933 190.204 17.672C190.15 17.512 190.124 17.2773 190.124 16.968C190.529 16.9893 191.116 17 191.884 17L193.036 16.984C193.59 16.9627 194.012 16.952 194.3 16.952C195.324 16.952 196.097 17.1493 196.62 17.544C197.142 17.9387 197.404 18.4453 197.404 19.064C197.404 19.6827 197.206 20.1947 196.812 20.6C196.417 20.9947 195.868 21.2613 195.164 21.4C195.43 21.56 195.649 21.7467 195.82 21.96C196.001 22.1627 196.289 22.552 196.684 23.128ZM193.244 20.872C194.012 20.872 194.641 20.7387 195.132 20.472C195.622 20.1947 195.868 19.7947 195.868 19.272C195.868 18.184 195.121 17.64 193.628 17.64C193.286 17.64 192.956 17.672 192.636 17.736V20.824C192.86 20.856 193.062 20.872 193.244 20.872ZM207.183 22.728C207.471 22.7813 207.706 22.8987 207.887 23.08C207.695 23.5813 207.551 24.2267 207.455 25.016L204.367 25C202.831 25 201.594 25.0107 200.655 25.032C200.655 24.7013 200.682 24.4613 200.735 24.312C201.002 24.2907 201.199 24.248 201.327 24.184C201.466 24.12 201.562 24.0027 201.615 23.832C201.668 23.6613 201.695 23.4053 201.695 23.064V18.856C201.695 18.5467 201.663 18.312 201.599 18.152C201.546 17.992 201.45 17.88 201.311 17.816C201.183 17.752 200.991 17.7093 200.735 17.688C200.682 17.528 200.655 17.288 200.655 16.968C201.423 16.9893 202.26 17 203.167 17C205.13 17 206.442 16.9893 207.103 16.968C207.22 17.9707 207.322 18.632 207.407 18.952C207.226 19.0693 206.986 19.128 206.687 19.128C206.644 18.68 206.458 18.328 206.127 18.072C205.807 17.816 205.236 17.688 204.415 17.688H203.167V20.632H203.967C204.532 20.632 204.922 20.568 205.135 20.44C205.359 20.312 205.476 20.0773 205.487 19.736C205.722 19.6613 205.967 19.624 206.223 19.624C206.202 19.8907 206.191 20.3387 206.191 20.968C206.191 21.6507 206.202 22.1147 206.223 22.36C205.935 22.36 205.7 22.328 205.519 22.264C205.487 21.912 205.359 21.672 205.135 21.544C204.922 21.416 204.532 21.352 203.967 21.352H203.167V23.032C203.167 23.3733 203.199 23.6347 203.263 23.816C203.338 23.9867 203.46 24.1093 203.631 24.184C203.812 24.248 204.079 24.28 204.431 24.28H204.527C205.146 24.28 205.62 24.2267 205.951 24.12C206.292 24.0133 206.543 23.8587 206.703 23.656C206.874 23.4427 207.034 23.1333 207.183 22.728Z" fill="#252932"/>
</svg>
