<svg width="10" height="10" viewBox="0 0 10 10" fill="none" xmlns="http://www.w3.org/2000/svg">
<path d="M6.53567 6.156C6.59567 6.152 6.64967 6.174 6.69767 6.222L7.05767 6.606C6.82967 6.87 6.54967 7.076 6.21767 7.224C5.88967 7.368 5.49367 7.44 5.02967 7.44C4.63767 7.44 4.27967 7.372 3.95567 7.236C3.63567 7.1 3.35967 6.91 3.12767 6.666C2.89967 6.422 2.72167 6.132 2.59367 5.796C2.46967 5.46 2.40767 5.092 2.40767 4.692C2.40767 4.288 2.47567 3.918 2.61167 3.582C2.74767 3.242 2.93767 2.952 3.18167 2.712C3.42567 2.468 3.71367 2.28 4.04567 2.148C4.38167 2.012 4.74567 1.944 5.13767 1.944C5.57367 1.944 5.94167 2.012 6.24167 2.148C6.54567 2.28 6.81167 2.458 7.03967 2.682L6.76367 3.072C6.74367 3.096 6.71767 3.12 6.68567 3.144C6.65367 3.168 6.61567 3.18 6.57167 3.18C6.51567 3.18 6.45567 3.158 6.39167 3.114C6.33167 3.07 6.25167 3.022 6.15167 2.97C6.05167 2.914 5.92367 2.864 5.76767 2.82C5.61567 2.772 5.42367 2.748 5.19167 2.748C4.90767 2.748 4.65367 2.794 4.42967 2.886C4.20567 2.974 4.01367 3.102 3.85367 3.27C3.69367 3.438 3.57167 3.642 3.48767 3.882C3.40367 4.122 3.36167 4.392 3.36167 4.692C3.36167 5 3.40367 5.276 3.48767 5.52C3.57567 5.76 3.69567 5.962 3.84767 6.126C3.99967 6.29 4.17967 6.416 4.38767 6.504C4.59967 6.588 4.82967 6.63 5.07767 6.63C5.28567 6.63 5.45967 6.614 5.59967 6.582C5.73967 6.55 5.86167 6.512 5.96567 6.468C6.07367 6.42 6.16967 6.368 6.25367 6.312C6.34167 6.256 6.43567 6.204 6.53567 6.156ZM0.619672 4.704C0.619672 4.3 0.671672 3.912 0.775672 3.54C0.879672 3.164 1.02767 2.814 1.21967 2.49C1.41167 2.162 1.63967 1.866 1.90367 1.602C2.17167 1.334 2.46767 1.104 2.79167 0.912C3.11567 0.72 3.46367 0.572 3.83567 0.468C4.20767 0.364 4.59567 0.312 4.99967 0.312C5.40367 0.312 5.79167 0.364 6.16367 0.468C6.53967 0.572 6.88967 0.72 7.21367 0.912C7.53767 1.104 7.83367 1.334 8.10167 1.602C8.36967 1.866 8.59767 2.162 8.78567 2.49C8.97767 2.814 9.12567 3.164 9.22967 3.54C9.33367 3.912 9.38567 4.3 9.38567 4.704C9.38567 5.104 9.33367 5.492 9.22967 5.868C9.12567 6.24 8.97767 6.588 8.78567 6.912C8.59767 7.236 8.36967 7.532 8.10167 7.8C7.83367 8.064 7.53767 8.292 7.21367 8.484C6.88967 8.676 6.53967 8.824 6.16367 8.928C5.79167 9.032 5.40367 9.084 4.99967 9.084C4.59567 9.084 4.20767 9.032 3.83567 8.928C3.46367 8.824 3.11567 8.676 2.79167 8.484C2.46767 8.292 2.17167 8.064 1.90367 7.8C1.63967 7.532 1.41167 7.236 1.21967 6.912C1.02767 6.588 0.879672 6.24 0.775672 5.868C0.671672 5.496 0.619672 5.108 0.619672 4.704ZM1.22567 4.704C1.22567 5.06 1.26967 5.402 1.35767 5.73C1.44567 6.058 1.56967 6.366 1.72967 6.654C1.89367 6.938 2.08967 7.196 2.31767 7.428C2.54967 7.66 2.80367 7.86 3.07967 8.028C3.35967 8.192 3.66167 8.32 3.98567 8.412C4.30967 8.5 4.64767 8.544 4.99967 8.544C5.35167 8.544 5.68967 8.5 6.01367 8.412C6.34167 8.32 6.64567 8.192 6.92567 8.028C7.20967 7.86 7.46567 7.66 7.69367 7.428C7.92567 7.196 8.12367 6.938 8.28767 6.654C8.45167 6.366 8.57767 6.058 8.66567 5.73C8.75767 5.402 8.80367 5.06 8.80367 4.704C8.80367 4.168 8.70367 3.666 8.50367 3.198C8.30767 2.726 8.03767 2.316 7.69367 1.968C7.35367 1.616 6.95167 1.34 6.48767 1.14C6.02367 0.936 5.52767 0.834 4.99967 0.834C4.64767 0.834 4.30967 0.88 3.98567 0.972C3.66167 1.064 3.35967 1.194 3.07967 1.362C2.80367 1.526 2.54967 1.726 2.31767 1.962C2.08967 2.198 1.89367 2.46 1.72967 2.748C1.56967 3.032 1.44567 3.34 1.35767 3.672C1.26967 4.004 1.22567 4.348 1.22567 4.704Z" fill="#525252"/>
</svg>
